PathFileType	4	(X/Y/Z)	/Users/mathieubourgeois/Desktop/Analyse/Traitement/Sujet_08/Data/Transformed_Sujet_08_velo_80.trc
DataRate	CameraRate	NumFrames	NumMarkers	Units	OrigDataRate	OrigDataStartFrame	OrigNumFrames
120.000000	120.000000	4	35	mm	120.000000	469	1878
Frame#	Time	RFHD			RANE			STRN			LANI			LKNE			T10			RHUM			RWRB			C7			LFWT			LTOE			RTOE			LWRA			LBWT			RBWT			RFWT			LKNI			RKNE			LANE			LHEE			LHUM			LRAD			RRAD			RWRA			LWRB			LFHD			LBHD			RBHD			RSHO			LSHO			CLAV			LCAR			RCAR			RANI			RKNI			
		X1	Y1	Z1	X2	Y2	Z2	X3	Y3	Z3	X4	Y4	Z4	X5	Y5	Z5	X6	Y6	Z6	X7	Y7	Z7	X8	Y8	Z8	X9	Y9	Z9	X10	Y10	Z10	X11	Y11	Z11	X12	Y12	Z12	X13	Y13	Z13	X14	Y14	Z14	X15	Y15	Z15	X16	Y16	Z16	X17	Y17	Z17	X18	Y18	Z18	X19	Y19	Z19	X20	Y20	Z20	X21	Y21	Z21	X22	Y22	Z22	X23	Y23	Z23	X24	Y24	Z24	X25	Y25	Z25	X26	Y26	Z26	X27	Y27	Z27	X28	Y28	Z28	X29	Y29	Z29	X30	Y30	Z30	X31	Y31	Z31	X32	Y32	Z32	X33	Y33	Z33	X34	Y34	Z34	X35	Y35	Z35	

470	3.908333333333333	231.2527160644531	1522.063232421875	50.7955245971679	-212.0427551269532	260.0329284667969	168.5645294189453	-37.96429824829102	1160.663940429688	6.710756301879807	-131.8535003662109	623.3228759765625	-67.45958709716803	59.70796585083009	974.8920288085938	-140.4720611572266	-191.7644195556641	1353.5517578125	21.61304855346669	153.5521240234375	1080.281494140625	198.8252716064453	338.2515869140624	909.4777221679688	255.2393341064453	22.11547470092773	1433.022338867188	2.494884729385291	-261.9496765136719	1110.152221679688	-86.55471038818369	-13.69601535797118	490.1776428222656	-121.7701263427735	-37.51424026489259	156.8461456298828	141.3960571289062	363.4004211425781	938.684814453125	-173.8474273681641	-394.0805969238281	1159.60791015625	-16.23732185363782	-382.0766296386719	1150.25	115.0703735351561	-227.1617279052735	1084.401000976562	141.3451080322265	46.43061447143555	905.448974609375	-35.01984024047857	-134.1021728515625	666.278564453125	187.3502197265624	-173.396011352539	629.3605346679688	-146.2401885986329	-222.6566619873047	621.7180786132812	-101.1873016357423	134.9312438964844	1073.18408203125	-181.4148559570313	182.3718872070313	1100.091186523438	-239.8737335205078	192.6386108398437	1103.963500976562	246.5924072265625	363.8994140625	928.3394165039062	188.2582244873047	329.9407043457031	894.5844116210938	-225.5548400878907	225.7698669433594	1531.911254882812	-75.71274566650398	71.30165863037111	1533.943115234375	-82.05464935302743	64.14956665039062	1538.852783203125	56.73190689086906	78.4093551635742	1365.989135742188	123.2612380981445	55.82084274291994	1361.330200195312	-144.7134857177735	69.32964324951172	1301.028930664062	-4.154620170593333	428.5578002929688	915.197509765625	-253.2884674072266	439.7009582519531	908.9972534179688	277.8344116210938	-179.9371490478516	273.5769348144531	90.72428131103511	-111.5453109741211	600.8307495117188	79.49085235595697	
471	3.916666666666667	231.5519714355469	1521.698974609375	50.02885437011712	-222.7790222167969	263.2231750488281	168.1756591796874	-37.91991806030273	1160.516235351562	6.851404666900559	-122.6155090332031	620.2645263671875	-67.83657836914068	59.46273040771486	977.684326171875	-139.5395050048829	-191.7396697998047	1353.702392578125	21.5215663909911	153.5148315429687	1080.272094726562	199.0811920166015	338.2330627441406	909.44189453125	255.4247894287109	22.17013168334961	1432.9248046875	2.182224988937293	-262.5611877441406	1110.95361328125	-86.29657745361338	0.02756654843689507	491.3304748535156	-122.1688995361328	-49.63917922973634	156.9017486572266	141.0556030273438	363.3746337890625	938.6663208007812	-173.6830749511719	-394.5145874023438	1160.203125	-16.04508018493664	-382.5186767578125	1150.716064453125	115.0950164794921	-227.5784912109375	1084.598022460938	141.766876220703	47.19823455810548	907.6795043945312	-34.38907623291021	-134.3228302001953	666.747802734375	187.4220275878906	-164.1946868896484	625.1495361328125	-146.299301147461	-213.5431365966797	615.9768676757812	-101.6482315063477	134.7227935791016	1072.884887695312	-181.3282165527344	182.1172180175782	1099.774536132812	-239.8301849365235	192.6002960205078	1103.948120117188	246.8218994140625	363.8834228515625	928.3701782226562	188.438232421875	329.9313659667969	894.5433349609375	-225.4416198730469	225.9690246582031	1531.380859375	-76.50897216796882	71.52822113037111	1533.653686523438	-82.67871093750009	64.18653869628906	1538.413940429688	56.73073959350577	78.69494628906249	1365.866455078125	122.9180068969726	55.51756286621096	1361.1640625	-145.0881652832032	69.35781097412109	1300.900756835938	-4.436180591583323	428.5398864746094	915.251708984375	-253.1979827880859	439.7296447753906	908.9235229492188	277.9110717773438	-190.3050537109375	276.0395202636719	90.34572601318355	-112.6093368530274	601.0418090820312	79.79658508300776	
472	3.925	231.7974853515625	1521.251708984375	49.3941802978515	-233.0003509521485	267.4847412109375	168.0081634521484	-38.04607009887695	1160.355834960938	7.053440570831223	-115.2632141113281	616.02783203125	-67.84219360351568	59.03438186645509	979.0264892578125	-138.7005462646485	-191.81884765625	1353.826782226562	21.39132690429677	153.4476623535156	1080.276977539062	199.3165283203125	338.1862182617187	909.4246215820312	255.5678558349609	22.11111450195312	1432.765869140625	1.956415057182227	-263.3521423339844	1111.733520507812	-86.13858032226572	12.32350826263429	490.3837890625	-121.9073867797852	-62.34059524536134	158.4950103759766	141.5094909667969	363.3078308105469	938.6570434570312	-173.5198974609375	-395.0225524902344	1160.763916015625	-15.89310359954846	-383.0349731445312	1151.122802734375	115.0856018066405	-228.1054229736328	1084.808715820312	142.0419311523437	47.5050163269043	908.5125732421875	-33.84318542480474	-133.5313873291016	667.7967529296875	187.5976409912109	-155.3505859375	619.9459228515625	-146.6593780517579	-204.4752807617188	609.2345581054688	-102.1745147705079	134.4594879150391	1072.671997070312	-181.1144561767578	181.7998809814453	1099.529052734375	-239.7328338623047	192.5765838623047	1103.96435546875	247.0190887451172	363.8081970214844	928.4165649414062	188.5886840820312	329.8722229003906	894.5469360351562	-225.3369140625	226.151611328125	1530.782592773438	-77.21417999267585	71.68172454833986	1533.318237304688	-83.21450805664071	64.46641540527344	1538.261108398438	56.17546844482413	78.82786560058592	1365.737915039062	122.6272201538085	55.14892578125002	1361.465942382812	-145.2225494384766	69.25175476074219	1300.688598632812	-4.609985828399729	428.4475708007813	915.3380126953125	-253.1403961181641	439.7085876464843	908.89501953125	277.9569396972656	-200.4625854492188	279.4950866699219	90.07359313964839	-112.7735290527344	601.9334106445312	80.17580413818354	
473	3.933333333333333	231.9678955078125	1520.694091796875	48.79019927978509	-242.5622253417969	272.8523864746094	168.1015167236328	-38.28459167480469	1160.213623046875	7.255718231201096	-108.9704818725586	610.3050537109375	-67.65110778808599	58.43648529052736	978.9166870117188	-137.8727722167969	-191.9985198974609	1353.906616210938	21.28752708435048	153.3013000488281	1080.29052734375	199.5268859863281	338.1187438964843	909.443603515625	255.6672058105468	21.9690990447998	1432.555786132812	1.785759568214331	-264.1579284667969	1112.422241210938	-86.05043792724619	24.18272781372072	488.4481506347656	-121.6133117675782	-74.50669860839845	160.5647430419922	141.4350280761719	363.0743103027344	938.3187866210938	-173.4547882080078	-395.69970703125	1161.201904296875	-15.75293731689465	-383.5060729980469	1151.58642578125	115.1840820312499	-228.7236633300782	1085.02392578125	142.212661743164	47.51151275634766	907.9988403320312	-33.42199707031255	-131.7527008056641	669.4312133789062	187.8361358642578	-146.663589477539	613.9080810546875	-147.4607696533204	-195.3448638916016	601.4134521484375	-103.6909484863282	134.2176055908203	1072.528198242188	-180.9185028076172	181.5088806152344	1099.398681640625	-239.5699462890625	192.470718383789	1103.995361328125	247.1737365722656	363.7082214355469	928.4899291992188	188.6801300048828	329.7740478515625	894.6028442382812	-225.2563781738282	226.1863861083984	1530.114013671875	-77.7704162597657	71.72645568847658	1532.931640625	-83.70554351806649	64.94431304931641	1538.401489257812	55.20598220825187	78.78328704833983	1365.578369140625	122.348289489746	54.75505065917971	1361.312377929688	-145.2931518554688	69.04661560058594	1300.437133789062	-4.692312240600657	428.0501403808594	916.6328125	-254.0041198730469	439.6747131347656	908.8890991210938	277.9754333496094	-209.9621429443359	284.0714416503906	89.99999999999996	-112.4687652587891	603.3487548828125	80.21376800537104	
